<?xml version="1.0" encoding="UTF-8"?><svg id="LHG_Logo" xmlns="http://www.w3.org/2000/svg" viewBox="0 0 1763.2013 134.9999881"><defs><style>.cls-1{fill:#fff;}</style></defs><path class="cls-1" d="M236.3520452.7932852c32.8603856,0,63.3463144,2.7709573,91.8492291,8.312815l-9.502828,9.106157c-25.3352296-4.7541987-51.4636876-7.1284849-80.3631597-7.1284849h-7.5251559l-4.3520152,8.3128718h6.7263583c27.715142,0,55.0334994,2.3799124,77.5977149,6.3351997l-9.106157,8.709486c-20.1898724-3.5642425-42.3630999-5.1452435-72.050231-5.1452435h-8.318498l-5.1451299,8.709486c7.1284849-.3966142,12.6702858-.3966142,17.022301-.3966142,20.9832144,0,43.944101,1.5865704,60.5754139,4.3575277l-9.106157,8.709486c-15.8379709-2.3742863-29.6928141-3.1675715-50.6759149-3.1675715-7.9162576,0-19.7933151.3966142-25.3353433.7932852l-7.1284849,8.709486c9.899499-.7932852,19.3966441-1.1899562,30.0894851-1.1899562,13.0615012,0,28.5028011.7932852,44.737443,2.7709573l-9.502828,9.106157c-11.0838291-1.1899562-22.9608865-1.9776721-31.2792708-1.9776721-31.2738152,0-53.8381444,5.1452435-72.0503447,16.2290726,21.7708735,23.3575575,59.3855145,37.2178564,101.3519434,37.2178564h3.9553442l-16.62563,15.8324016c-63.346428-12.6647733-108.8716437-32.4636577-159.9443433-68.8826596C53.0503716,38.0055723,37.6089581,28.5028011.396671,11.4804433L0,0l27.715142,11.4804433,11.8770574-9.106157,77.5978286,35.2346718-8.3183843,6.3351429-38.4023001-16.6256868-5.1453572,4.7486294,16.6258573,9.5027712c17.815643,9.502828,31.6759418,14.2514005,42.7597709,14.6480715,28.5028011.3966142,53.8436-19.4022702,69.675888-53.446929,13.4637415-1.1899562,27.715142-1.9776721,41.9665426-1.9776721Z"/><path class="cls-1" d="M1604.2275409,19.1676197v59.6181946c0,15.3005291,7.0050572,22.0208452,21.1634597,22.0208452,14.0117027,0,21.0169043-6.7203161,21.0169043-22.0208452V19.1676197h23.1643019v61.049389c0,24.3079745-13.5830106,41.180611-44.1812062,41.180611-30.7434151,0-44.3278692-16.8726365-44.3278692-41.180611V19.1676197h23.1644095ZM1362.2354823,65.3437338h-41.324423v20.165295h18.1614573v9.149819c-4.8618837,3.5730629-11.7274606,6.1492555-22.5946485,6.1492555-20.017124,0-28.5973537-10.5824468-28.5973537-31.600795,0-21.0210916,8.7240144-31.6020995,27.7414127-31.6020995,13.8693628,0,19.8760828,3.2896263,23.0191537,13.1557617h24.3078301c-2.715649-20.4485872-16.4439441-33.7454174-47.3269838-33.7454174-36.3216151,0-51.7616189,20.7349116-51.7616189,52.1917552,0,31.4555441,15.4400038,52.1888675,52.4764914,52.1888675,21.4483402,0,37.7457289-8.5787585,45.8986827-16.3001321v-39.7523099ZM1127.6758739,48.6163531c-2.0036933-21.307416-14.7280191-31.6008-40.6095505-31.6008-27.8832032,0-40.4650166,13.2968302-40.4650166,31.3159195,0,19.0159544,10.5802859,27.594713,29.0251799,29.8832867l14.1584025,1.7160638c12.5805139,1.5708191,15.8701401,4.8618892,15.8701401,10.5810134,0,6.8641279-5.1466198,10.7220764-19.0173983,10.7220764-16.5864565,0-19.5884589-6.4326972-20.4471433-14.5814637h-23.593102c1.5722574,21.1592724,12.4388677,34.7437265,44.0402453,34.7437265,28.0262932,0,42.8966804-11.0097004,42.8966804-32.3140842,0-19.8747833-11.4398367-29.1698582-32.4594844-31.744612l-14.1555147-1.7131877c-9.292909-1.143565-12.4387234-3.577244-12.4387234-8.8663763,0-5.4343881,3.7175968-10.0113913,16.5857346-10.0113913,12.4394453,0,15.871584,4.8618772,17.0164485,11.8698287h23.593102ZM1009.8291964,81.2167617l-47.3277057-62.049142h-21.7353865v99.9999667h23.1629656v-61.9724748l47.3298716,61.9724748h21.7332207V19.1676197h-23.1629656v62.049142ZM1729.7420617,19.1676197c22.0194013,0,33.4592383,11.5749,33.4592383,32.0205994,0,18.8777737-11.296025,32.0293481-33.4592383,32.0293481h-23.1644101v35.9500192h-23.1642657V19.1676197h46.3286759M1726.0237429,63.0567483c9.2936312,0,13.1544625-3.8593873,13.1544625-11.8685292,0-8.0048102-3.8608313-11.8655036-13.1544625-11.8655036h-19.4460913v23.7340327h19.4460913M1517.8785694,17.016997c37.0308564,0,52.1904557,22.1604693,52.1904557,52.1888675,0,30.0285426-15.1595993,52.1903114-52.1904557,52.1903114-37.0335998,0-52.1916109-22.1617688-52.1916109-52.1903114,0-30.0283982,15.1580111-52.1888675,52.1916109-52.1888675M1517.8785694,100.8066595c19.4460908,0,28.1673618-11.4398317,28.1673618-31.600795,0-20.1608189-8.721271-31.5992117-28.1673618-31.5992117-19.4473903,0-28.1685169,11.4383928-28.1685169,31.5992117,0,20.1609633,8.7211266,31.600795,28.1685169,31.600795M1459.6123473,119.1675864h-23.8778073l-1.7161002-12.4992853c-2.1460613-15.4415921-8.4362461-23.4507339-20.7347672-23.4507339h-14.2993266v35.9500192h-23.1644095V19.1676197h46.7573672c23.4505896,0,34.7466143,12.1486971,34.7466143,31.1647965,0,12.0107591-5.2905761,20.8771416-16.1579084,25.1637774,8.2940224,5.0056956,14.0131466,14.0144461,16.3002765,29.1697138l2.1460613,14.5016791ZM1419.7191132,63.0567483c9.149819,0,13.5831546-3.8593873,13.5831546-11.8685292,0-8.0048102-4.4333356-11.8655036-13.5831546-11.8655036h-20.7347672v23.7340327h20.7347672M1232.8095136,119.1675864h-25.3077532l-5.5780557-16.7886645h-39.3208741l-5.4342437,16.7886645h-25.3077275l36.3187273-99.9999667h28.3111737l36.318753,99.9999667ZM1195.4895637,82.7890191l-13.1542933-40.1766707-13.2997184,40.1766707h26.4540117ZM933.2491861,119.1675864h-25.3097489l-5.5767562-16.7886645h-39.3201521l-5.4349494,16.7886645h-25.3097652l36.3194658-99.9999667h28.3139006l36.3180054,99.9999667ZM895.9285572,82.7890191l-13.153613-40.1766707-13.2982741,40.1766707h26.4518872ZM757.2828557,58.9097371V19.1676197h-23.162835v99.9999667h23.162835v-40.096886h43.0412006v40.096886h23.1644095V19.1676197h-23.1644095v39.7421174h-43.0412006ZM672.786821,39.3212717v79.8463148h23.1644095V39.3212717h28.0261488v-20.1536519h-79.2154077v20.1536519h28.0248493ZM588.2893656,119.1675864v-37.8055689h43.7560773v-20.1651506h-43.7560773v-21.8741514h46.3301092v-20.1550958h-69.4945193v99.9999667h23.1644101ZM462.6493991,19.1676197v61.049389c0,24.3079745,13.5857537,41.180611,44.3278692,41.180611,30.6001807,0,44.1846348-16.8726365,44.1846348-41.180611V19.1676197h-23.1649871v59.6181946c0,15.3005291-7.008667,22.0208452-21.0196477,22.0208452-14.1562366,0-21.1636041-6.7203161-21.1636041-22.0208452V19.1676197h-23.1642652ZM388.2013,19.1676261v99.9999603h68.8853488v-20.0769913h-45.7209392V19.1676197l-23.1644095.0000064Z"/></svg>