<?xml version="1.0" encoding="utf-8"?>
<!-- Generator: Adobe Illustrator 25.3.1, SVG Export Plug-In . SVG Version: 6.00 Build 0)  -->
<svg version="1.1" id="SWISS_Logo" xmlns="http://www.w3.org/2000/svg" xmlns:xlink="http://www.w3.org/1999/xlink" x="0px" y="0px"
	 viewBox="0 0 698.791 228.92" style="enable-background:new 0 0 698.791 228.92;" xml:space="preserve">
<style type="text/css">
	.st0{fill:#CC0000;}
	.st1{fill:#FFFFFF;}
</style>
<path id="Type_1_" class="st0" d="M490.853,159.656h-23.557V68.953h23.557V159.656z M435.098,68.953l-15.16,60.791l-17.738-60.791
	h-22.768l-17.723,60.791L346.51,68.953h-23.018l25.035,90.703h24.318l17.951-62.199l17.965,62.199h24.301l25.115-90.703H435.098z
	 M321.518,134.014c0-17.387-9.217-23.215-29.397-29.793c-9.508-3.102-18.381-5.486-18.381-12.877c0-6.484,6.594-8.637,11.525-8.637
	c4.176,0,12.027,0.883,12.662,10.506h22.27c-0.383-18.367-15.32-26.365-34.545-26.365c-11.912,0-21.754,3.375-27.961,9.48
	c-4.322,4.264-6.961,10.516-6.961,17.02c0,16.893,11.281,23.654,24.027,27.531c14.318,4.369,23.791,6.984,23.791,14.869
	c0,5.258-4.176,10.512-12.414,10.512c-10.471,0-14.279-6.252-14.525-12.395h-22.533c0,20.896,17.613,28.549,37.059,28.549
	C310.965,162.414,321.518,148.273,321.518,134.014 M574.165,134.014c0-20.006-14.553-25.283-32.144-30.545
	c-8.481-2.492-16.096-4.734-16.096-12.125c0-6.484,6.588-8.637,11.523-8.637c4.195,0,12.02,0.883,12.643,10.506h22.295
	c-0.383-18.367-15.309-26.365-34.56-26.365c-11.9,0-21.781,3.375-27.951,9.48c-4.305,4.264-6.959,10.516-6.959,17.02
	c0,16.893,11.252,23.654,24.041,27.531c14.305,4.369,23.801,6.984,23.801,14.869c0,5.258-4.164,10.512-12.408,10.512
	c-10.512,0-14.314-6.252-14.545-12.395h-22.537c0,20.896,17.605,28.549,37.082,28.549
	C563.142,162.414,574.165,148.273,574.165,134.014 M655.197,134.014c0-20.006-14.619-25.283-32.197-30.545
	c-8.5-2.492-16.062-4.734-16.062-12.125c0-6.484,6.557-8.637,11.494-8.637c4.164,0,12.02,0.883,12.662,10.506h22.332
	c-0.385-18.367-15.385-26.365-34.59-26.365c-11.898,0-21.775,3.375-27.996,9.48c-4.293,4.264-6.939,10.516-6.939,17.02
	c0,16.893,11.26,23.654,24.023,27.531c14.32,4.369,23.795,6.984,23.795,14.869c0,5.258-4.16,10.512-12.393,10.512
	c-10.5,0-14.301-6.252-14.549-12.395h-22.545c0,20.896,17.594,28.549,37.094,28.549
	C644.176,162.414,655.197,148.273,655.197,134.014"/>
<polygon id="Tailfin_1_" class="st0" points="198.703,185.326 43.596,185.326 157.275,43.594 233.621,43.594 "/>
<polygon id="Cross_1_" class="st1" points="174.967,101.383 174.967,70.867 148.811,70.867 148.811,101.383 118.295,101.383 
	118.295,127.537 148.791,127.537 148.791,158.055 174.947,158.055 174.947,127.537 174.967,127.537 205.482,127.537 
	205.482,101.383 "/>
</svg>
